<!-- 1 -->
<svg id="instagram" width="40" height="40" viewBox="0 0 40 40" fill="none" xmlns="http://www.w3.org/2000/svg">
<path d="M40 20C40 25.5228 37.7614 30.5228 34.1421 34.1421C30.5228 37.7614 25.5228 40 20 40C14.4772 40 9.47715 37.7614 5.85786 34.1421C2.23858 30.5228 0 25.5228 0 20C0 14.4772 2.23858 9.47715 5.85786 5.85786C9.47715 2.23858 14.4772 0 20 0C25.5228 0 30.5228 2.23858 34.1421 5.85786C37.7614 9.47715 40 14.4772 40 20Z" fill="#4D5AE5"/>
<g clip-path="url(#clip0_431671_2298)">
<path d="M31.9765 15.0561C31.9203 13.7809 31.7141 12.9042 31.4187 12.1445C31.1139 11.3381 30.6451 10.6162 30.0308 10.016C29.4307 9.40652 28.704 8.93292 27.9069 8.63294C27.1429 8.33753 26.2708 8.13131 24.9955 8.07509C23.7108 8.0141 23.303 8 20.0445 8C16.7861 8 16.3782 8.0141 15.0982 8.07033C13.823 8.12655 12.9463 8.33295 12.1868 8.62817C11.3803 8.93292 10.6583 9.40176 10.0582 10.016C9.4487 10.6162 8.97528 11.3429 8.67511 12.1399C8.3797 12.9042 8.17349 13.7761 8.11726 15.0513C8.05628 16.336 8.04218 16.7439 8.04218 20.0023C8.04218 23.2608 8.05628 23.6686 8.1125 24.9486C8.16873 26.2238 8.37513 27.1005 8.67053 27.8602C8.97528 28.6666 9.4487 29.3885 10.0582 29.9887C10.6583 30.5982 11.385 31.0718 12.1821 31.3718C12.9463 31.6672 13.8183 31.8734 15.0937 31.9296C16.3734 31.986 16.7815 31.9999 20.0399 31.9999C23.2984 31.9999 23.7062 31.986 24.9862 31.9296C26.2614 31.8734 27.1381 31.6672 27.8976 31.3718C29.5105 30.7482 30.7857 29.4729 31.4093 27.8602C31.7046 27.096 31.911 26.2238 31.9672 24.9486C32.0234 23.6686 32.0375 23.2608 32.0375 20.0023C32.0375 16.7439 32.0327 16.336 31.9765 15.0561ZM29.8153 24.8549C29.7636 26.027 29.5667 26.6599 29.4027 27.0819C28.9994 28.1274 28.1696 28.9572 27.124 29.3605C26.7021 29.5246 26.0645 29.7215 24.897 29.7729C23.6311 29.8293 23.2515 29.8433 20.0493 29.8433C16.847 29.8433 16.4626 29.8293 15.2013 29.7729C14.0292 29.7215 13.3963 29.5246 12.9743 29.3605C12.454 29.1682 11.9804 28.8634 11.596 28.4649C11.1975 28.0758 10.8928 27.6069 10.7005 27.0866C10.5364 26.6647 10.3395 26.027 10.288 24.8596C10.2316 23.5937 10.2177 23.2139 10.2177 20.0117C10.2177 16.8095 10.2316 16.425 10.288 15.1639C10.3395 13.9918 10.5364 13.3589 10.7005 12.9369C10.8928 12.4165 11.1975 11.943 11.6008 11.5584C11.9898 11.1599 12.4586 10.8552 12.9791 10.6631C13.4011 10.499 14.0388 10.3021 15.2061 10.2504C16.472 10.1942 16.8518 10.1801 20.0538 10.1801C23.2608 10.1801 23.6405 10.1942 24.9018 10.2504C26.0739 10.3021 26.7068 10.499 27.1288 10.6631C27.6491 10.8552 28.1227 11.1599 28.5071 11.5584C28.9056 11.9476 29.2104 12.4165 29.4027 12.9369C29.5667 13.3589 29.7636 13.9964 29.8153 15.1639C29.8715 16.4298 29.8856 16.8095 29.8856 20.0117C29.8856 23.2139 29.8715 23.589 29.8153 24.8549Z" fill="#F4F4FD"/>
<path d="M20.0445 13.8369C16.6409 13.8369 13.8793 16.5983 13.8793 20.0022C13.8793 23.406 16.6409 26.1674 20.0445 26.1674C23.4484 26.1674 26.2098 23.406 26.2098 20.0022C26.2098 16.5983 23.4484 13.8369 20.0445 13.8369ZM20.0445 24.0014C17.8364 24.0014 16.0453 22.2105 16.0453 20.0022C16.0453 17.7939 17.8364 16.0029 20.0445 16.0029C22.2529 16.0029 24.0438 17.7939 24.0438 20.0022C24.0438 22.2105 22.2529 24.0014 20.0445 24.0014Z" fill="#F4F4FD"/>
<path d="M27.893 13.5934C27.893 14.3882 27.2486 15.0327 26.4535 15.0327C25.6587 15.0327 25.0142 14.3882 25.0142 13.5934C25.0142 12.7983 25.6587 12.1541 26.4535 12.1541C27.2486 12.1541 27.893 12.7983 27.893 13.5934Z" fill="#F4F4FD"/>
</g>
<defs>
<clipPath id="clip0_431671_2298">
<rect width="24" height="24" fill="white" transform="translate(8 8)"/>
</clipPath>
</defs>
</svg>

<!-- 2 -->
<svg width="40" height="40" viewBox="0 0 40 40" fill="none" xmlns="http://www.w3.org/2000/svg">
<path d="M40 20C40 25.5228 37.7614 30.5228 34.1421 34.1421C30.5228 37.7614 25.5228 40 20 40C14.4772 40 9.47715 37.7614 5.85786 34.1421C2.23858 30.5228 0 25.5228 0 20C0 14.4772 2.23858 9.47715 5.85786 5.85786C9.47715 2.23858 14.4772 0 20 0C25.5228 0 30.5228 2.23858 34.1421 5.85786C37.7614 9.47715 40 14.4772 40 20Z" fill="#4D5AE5"/>
<g clip-path="url(#clip0_431671_2299)">
<path d="M32 12.5585C31.1075 12.95 30.1565 13.2095 29.165 13.3355C30.185 12.7265 30.9635 11.7695 31.3295 10.616C30.3785 11.183 29.3285 11.5835 28.2095 11.807C27.3065 10.8455 26.0195 10.25 24.6155 10.25C21.8915 10.25 19.6985 12.461 19.6985 15.1715C19.6985 15.5615 19.7315 15.9365 19.8125 16.2935C15.722 16.094 12.1025 14.1335 9.671 11.147C9.2465 11.8835 8.9975 12.7265 8.9975 13.634C8.9975 15.338 9.875 16.8485 11.183 17.723C10.3925 17.708 9.617 17.4785 8.96 17.117C8.96 17.132 8.96 17.1515 8.96 17.171C8.96 19.562 10.6655 21.548 12.902 22.0055C12.5015 22.115 12.065 22.1675 11.612 22.1675C11.297 22.1675 10.979 22.1495 10.6805 22.0835C11.318 24.032 13.127 25.4645 15.278 25.511C13.604 26.8205 11.4785 27.6095 9.1775 27.6095C8.774 27.6095 8.387 27.5915 8 27.542C10.1795 28.9475 12.7625 29.75 15.548 29.75C24.602 29.75 29.552 22.25 29.552 15.749C29.552 15.5315 29.5445 15.3215 29.534 15.113C30.5105 14.42 31.331 13.5545 32 12.5585Z" fill="#F4F4FD"/>
</g>
<defs>
<clipPath id="clip0_431671_2299">
<rect width="24" height="24" fill="white" transform="translate(8 8)"/>
</clipPath>
</defs>
</svg>

<!-- 3 -->
<svg width="24" height="24" viewBox="0 0 24 24" fill="none" xmlns="http://www.w3.org/2000/svg">
<g clip-path="url(#clip0_589023_8)">
<path d="M15.997 3.985H18.188V0.169C17.81 0.117 16.51 0 14.996 0C11.837 0 9.67298 1.987 9.67298 5.639V9H6.18698V13.266H9.67298V24H13.947V13.267H17.292L17.823 9.001H13.946V6.062C13.947 4.829 14.279 3.985 15.997 3.985Z" fill="#F4F4FD"/>
</g>
<defs>
<clipPath id="clip0_589023_8">
<rect width="24" height="24" fill="white"/>
</clipPath>
</defs>
</svg>

<!-- 4 -->
<svg id="" width="24" height="24" viewBox="0 0 24 24" fill="none" xmlns="http://www.w3.org/2000/svg">
<g clip-path="url(#clip0_589023_141)">
<path d="M23.9941 24V23.999H24.0001V15.197C24.0001 10.891 23.0731 7.57397 18.0391 7.57397C15.619 7.57397 13.995 8.90197 13.332 10.161H13.262V7.97597H8.48904V23.999H13.459V16.065C13.459 13.976 13.855 11.956 16.442 11.956C18.9911 11.956 19.0291 14.34 19.0291 16.199V24H23.9941Z" fill="#F4F4FD"/>
<path d="M0.396027 7.97705H5.37203V24H0.396027V7.97705Z" fill="#F4F4FD"/>
<path d="M2.88203 0C1.29103 0 3.05176e-05 1.291 3.05176e-05 2.882C3.05176e-05 4.473 1.29103 5.791 2.88203 5.791C4.47303 5.791 5.76403 4.473 5.76403 2.882C5.76303 1.291 4.47203 0 2.88203 0V0Z" fill="#F4F4FD"/>
</g>
<defs>
<clipPath id="clip0_589023_141">
<rect width="24" height="24" fill="white"/>
</clipPath>
</defs>
</svg>


